<?xml version="1.0" encoding="utf-8"?>
<!-- Generator: Adobe Illustrator 24.1.2, SVG Export Plug-In . SVG Version: 6.00 Build 0)  -->
<svg version="1.1" id="Capa_1" xmlns="http://www.w3.org/2000/svg" xmlns:xlink="http://www.w3.org/1999/xlink" x="0px" y="0px"
	 viewBox="0 0 32 32" style="enable-background:new 0 0 32 32;" xml:space="preserve">
<style type="text/css">
	.st0{fill:#757575;}
	.st1{fill:none;stroke:#FFFFFF;stroke-linecap:round;stroke-linejoin:round;}
</style>
<g>
	<path class="st0" d="M0,16C0,7.2,7.2,0,16,0c8.8,0,16,7.2,16,16c0,8.8-7.2,16-16,16C7.2,32,0,24.8,0,16z"/>
	<path class="st1" d="M21.3,12.2l-0.7,9.3c-0.1,0.8-0.7,1.4-1.5,1.4h-6.3c-0.8,0-1.5-0.6-1.5-1.4l-0.7-9.3"/>
	<line class="st1" x1="14.5" y1="15.2" x2="14.5" y2="19.8"/>
	<line class="st1" x1="17.5" y1="15.2" x2="17.5" y2="19.8"/>
	<path class="st1" d="M18.3,12.2V9.9c0-0.4-0.3-0.8-0.8-0.8h-3c-0.4,0-0.8,0.3-0.8,0.8v2.3"/>
	<line class="st1" x1="9.9" y1="12.2" x2="22.1" y2="12.2"/>
</g>
</svg>
