<?xml version="1.0" encoding="utf-8"?>
<!-- Generator: Adobe Illustrator 24.1.2, SVG Export Plug-In . SVG Version: 6.00 Build 0)  -->
<svg version="1.1" id="Capa_1" xmlns="http://www.w3.org/2000/svg" xmlns:xlink="http://www.w3.org/1999/xlink" x="0px" y="0px"
	 viewBox="0 0 32 32" style="enable-background:new 0 0 32 32;" xml:space="preserve">
<style type="text/css">
	.st0{fill:#757575;}
	.st1{fill:#FFFFFF;}
</style>
<g>
	<path class="st0" d="M0,16c0-8.8,7.1-16,16-16c8.8,0,16,7.1,16,16c0,8.8-7.1,16-16,16C7.1,32,0,24.9,0,16z"/>
	<path class="st1" d="M22.7,9.3c-1-1-2.5-1-3.5,0L8.7,19.8c-0.1,0.1-0.2,0.3-0.2,0.4v2.7c0,0.3,0.3,0.6,0.6,0.6h2.7
		c0.2,0,0.3-0.1,0.4-0.2l10.5-10.5C23.6,11.9,23.6,10.3,22.7,9.3z M11.5,22.3H9.7v-1.9l8.7-8.7l1.9,1.9L11.5,22.3z M21.1,12.8
		l-1.9-1.9l0.7-0.7c0.5-0.5,1.4-0.5,1.9,0c0.5,0.5,0.5,1.4,0,1.9L21.1,12.8z"/>
</g>
</svg>
